<?xml version="1.0"?>
<svg xmlns="http://www.w3.org/2000/svg" id="Line_cutting_cutting_Ex" data-name="Line cutting cutting Ex" width="512" height="512" viewBox="0 0 512 512"><g><path d="M424,260.529,440.7,250.512h0A48.242,48.242,0,0,0,464,209.353V208a8,8,0,0,0-8-8H376a8,8,0,0,0-8,8v1.353a48.241,48.241,0,0,0,23.305,41.159L408,260.529V288H344.828l7.133-72.284c.026-.261.039-.524.039-.786a18.084,18.084,0,0,0-11.68-16.854l-53.938-20.227-4.511-13.533A28.018,28.018,0,0,0,296,140V104a8,8,0,0,0,8-8V86.415a27.964,27.964,0,0,0-19.146-26.563L274.53,56.411a7.987,7.987,0,0,0-2.941-.4A27.911,27.911,0,0,0,252,48H208a8,8,0,0,0-8,8V76a28.035,28.035,0,0,0,16,25.3V140a28.018,28.018,0,0,0,14.129,24.316l-4.511,13.533L171.68,198.076A18.084,18.084,0,0,0,160,214.93c0,.262.013.525.039.786L167.172,288H104V260.529L120.7,250.512h0A48.242,48.242,0,0,0,144,209.353V208a8,8,0,0,0-8-8H56a8,8,0,0,0-8,8v1.353a48.241,48.241,0,0,0,23.305,41.159L88,260.529V288H16v16H496V288H424ZM384.708,216h62.584a32.183,32.183,0,0,1-14.828,20.792L416,246.67l-16.463-9.878A32.181,32.181,0,0,1,384.708,216Zm-320,0h62.584a32.183,32.183,0,0,1-14.828,20.792L96,246.67l-16.463-9.878A32.181,32.181,0,0,1,64.708,216Zm176.207-33.447L245.766,168h20.468l4.851,14.553L256,202.667ZM280,140a12.013,12.013,0,0,1-12,12H244a12.013,12.013,0,0,1-12-12V104h48Zm0-64.9a11.985,11.985,0,0,1,8,11.314V88h-8ZM216,64h36a12.013,12.013,0,0,1,12,12V88H228a12.013,12.013,0,0,1-12-12ZM176.015,214.688a2.01,2.01,0,0,1,1.283-1.63l15.782-5.919L200,248.662V288H183.25ZM216,288V248a8.056,8.056,0,0,0-.109-1.315l-7.029-42.172,20.744-10.372L249.6,220.8a8,8,0,0,0,12.8,0l19.994-26.659,20.563,10.282-6.8,34.008A8.026,8.026,0,0,0,296,240v48Zm96,0V240.792l6.744-33.719,15.959,5.985a2.01,2.01,0,0,1,1.282,1.63L328.75,288Z"/><rect x="424" y="320" width="72" height="16"/><rect x="16" y="320" width="392" height="16"/><rect x="72" y="16" width="424" height="16"/><rect x="16" y="16" width="40" height="16"/><path d="M200,176V160H176V128a7.994,7.994,0,0,0-.845-3.578l-8-16A8,8,0,0,0,160,104h-8V88H136v16h-8a8,8,0,0,0-7.155,4.422l-8,16A7.994,7.994,0,0,0,112,128v32H96V96a7.994,7.994,0,0,0-.845-3.578l-8-16A8,8,0,0,0,80,72H72V48H56V72H48a8,8,0,0,0-7.155,4.422l-8,16A7.994,7.994,0,0,0,32,96v64H16v16Zm-72-46.111L132.944,120h22.112L160,129.889V160H128Zm-80-32L52.944,88H75.056L80,97.889V160H48Z"/><path d="M481.186,95.3a7.99,7.99,0,0,0-.845-3.577l-8-16a8,8,0,0,0-7.155-4.423H456V48H440V71.3h-6.814a8,8,0,0,0-7.155,4.423l-8,16a7.99,7.99,0,0,0-.845,3.577V160H400V128a7.994,7.994,0,0,0-.845-3.578l-8-16A8,8,0,0,0,384,104h-8V88H360v16h-8a8,8,0,0,0-7.155,4.422l-8,16A7.994,7.994,0,0,0,336,128v32H312v16H496V160H481.186Zm-48,1.889L438.13,87.3h22.112l4.944,9.889V159.3h-32ZM352,160V129.889L356.944,120h22.112L384,129.889V160Z"/><rect x="264" y="240" width="24" height="16"/><path d="M134,352H58a18.021,18.021,0,0,0-18,18v14a8,8,0,0,0,5.47,7.589L88,405.766V480H72v16h48V480H104V405.766l42.53-14.177A8,8,0,0,0,152,384V370A18.021,18.021,0,0,0,134,352Zm2,26.234L96,391.567,56,378.234V370a2,2,0,0,1,2-2h76a2,2,0,0,1,2,2Z"/><path d="M294,352H218a18.021,18.021,0,0,0-18,18v14a8,8,0,0,0,5.47,7.589L248,405.766V480H232v16h48V480H264V405.766l42.53-14.177A8,8,0,0,0,312,384V370A18.021,18.021,0,0,0,294,352Zm2,26.234-40,13.333-40-13.333V370a2,2,0,0,1,2-2h76a2,2,0,0,1,2,2Z"/><path d="M454,352H378a18.021,18.021,0,0,0-18,18v14a8,8,0,0,0,5.47,7.589L408,405.766V480H392v16h48V480H424V405.766l42.53-14.177A8,8,0,0,0,472,384V370A18.021,18.021,0,0,0,454,352Zm2,26.234-40,13.333-40-13.333V370a2,2,0,0,1,2-2h76a2,2,0,0,1,2,2Z"/></g></svg>
